<svg width="56" height="56" viewBox="0 0 56 56" fill="none" xmlns="http://www.w3.org/2000/svg">
<rect width="56" height="56" rx="18" fill="#FF7800"/>
<path d="M11.69 31.9143H43.31C44.2437 31.9143 45 32.6691 45 33.601C45 33.9552 44.8901 34.2841 44.7042 34.554C44.624 34.7437 44.5014 34.9208 44.3493 35.0769L36.9007 42.5066C36.5711 42.8355 36.1402 43 35.705 43C35.2698 43 34.8388 42.8355 34.5093 42.5066C33.8502 41.8488 33.8502 40.782 34.5093 40.12L39.3596 35.2877H11.6942C10.7605 35.2877 10.0042 34.5329 10.0042 33.601C10.0042 32.6691 10.7563 31.9143 11.69 31.9143ZM43.31 24.0882H11.69C10.7563 24.0882 10 23.3334 10 22.4015C10 22.0473 10.1099 21.7184 10.2958 21.4485C10.3549 21.3094 10.4394 21.1745 10.5408 21.048L16.6333 13.6182C17.2248 12.8971 18.2895 12.7917 19.012 13.382C19.7344 13.9724 19.8401 15.035 19.2486 15.756L15.1799 20.7148H43.31C44.2437 20.7148 45 21.4696 45 22.4015C45 23.3334 44.2437 24.0882 43.31 24.0882Z" fill="white"/>
</svg>
