<?xml version="1.0" standalone="no"?>
<!DOCTYPE svg PUBLIC "-//W3C//DTD SVG 20010904//EN"
 "http://www.w3.org/TR/2001/REC-SVG-20010904/DTD/svg10.dtd">
<svg version="1.0" xmlns="http://www.w3.org/2000/svg"
 width="500.000000pt" height="500.000000pt" viewBox="0 0 500.000000 500.000000"
 preserveAspectRatio="xMidYMid meet">
<metadata>
Created by potrace 1.14, written by Peter Selinger 2001-2017
</metadata>
<g transform="translate(0.000000,500.000000) scale(0.100000,-0.100000)"
fill="#000000" stroke="none">
<path d="M2360 4195 c-146 -85 -257 -149 -318 -182 -26 -14 -54 -32 -63 -39
-8 -8 -18 -14 -21 -14 -4 0 -55 -28 -115 -63 -103 -61 -187 -109 -548 -317
-279 -161 -300 -173 -317 -194 -16 -19 -18 -59 -18 -463 0 -290 4 -450 11
-465 9 -20 56 -52 208 -138 192 -110 402 -233 405 -239 3 -4 -124 -81 -282
-171 -158 -91 -299 -177 -314 -192 -17 -16 -28 -37 -28 -53 0 -49 11 -59 125
-125 47 -27 657 -381 687 -399 100 -60 192 -111 199 -111 5 0 9 -4 9 -10 0 -5
4 -10 9 -10 5 0 93 -49 196 -110 103 -60 189 -110 191 -110 2 0 26 -14 52 -30
27 -17 58 -30 69 -30 16 0 218 110 368 201 17 10 41 24 55 32 14 7 159 91 323
185 164 95 312 181 330 191 294 168 435 254 450 274 18 23 19 52 19 464 0 349
-3 445 -14 462 -11 18 -171 118 -329 206 -134 75 -298 171 -298 175 0 3 137
84 304 180 179 103 309 184 316 197 18 34 14 73 -12 98 -19 18 -239 148 -544
320 -22 13 -139 80 -260 150 -121 70 -240 139 -265 153 -25 14 -78 45 -118 69
-41 24 -75 43 -77 43 -2 0 -49 27 -106 61 -56 33 -116 63 -133 66 -25 3 -54
-9 -146 -62z m56 -487 l-1 -323 -185 -108 c-102 -59 -192 -111 -200 -114 -8
-4 -39 -21 -68 -40 -29 -18 -54 -33 -57 -33 -2 0 -30 -16 -62 -35 -32 -19 -63
-35 -70 -35 -6 0 -60 29 -120 64 -59 35 -131 77 -159 92 -201 115 -273 159
-266 166 4 4 80 49 168 99 87 51 186 108 219 127 33 19 78 45 100 57 22 13
189 109 370 214 182 105 331 191 331 191 1 0 1 -145 0 -322z m251 272 c38 -22
75 -45 83 -49 39 -24 427 -246 445 -255 11 -6 22 -13 25 -16 5 -5 12 -9 89
-52 20 -11 82 -47 137 -79 117 -67 175 -100 262 -149 34 -19 62 -38 62 -41 0
-6 -67 -46 -220 -132 -19 -10 -72 -41 -118 -68 -45 -27 -111 -65 -146 -84
l-64 -35 -89 51 c-48 28 -104 60 -123 71 -90 51 -318 183 -340 197 -14 9 -37
23 -52 30 -17 9 -28 23 -29 35 0 24 0 535 1 584 0 17 2 32 5 32 2 0 35 -18 72
-40z m-10 -831 c87 -51 181 -104 208 -120 150 -83 185 -107 173 -116 -11 -9
-339 -199 -455 -264 -19 -11 -45 -26 -57 -34 -27 -18 -39 -14 -121 35 -33 20
-65 39 -70 41 -47 19 -384 224 -378 230 9 8 271 161 363 212 30 17 82 47 115
68 33 20 61 38 62 38 2 1 74 -40 160 -90z m-1393 -38 c37 -22 70 -41 72 -41 3
0 21 -10 42 -23 20 -13 62 -37 92 -54 30 -17 72 -40 93 -53 43 -25 44 -24 -43
-72 -25 -14 -120 -69 -212 -122 -91 -53 -169 -96 -172 -96 -3 0 -6 122 -6 271
l0 271 33 -20 c17 -11 63 -38 101 -61z m828 -476 c174 -100 224 -133 215 -142
-10 -9 -331 -197 -502 -293 -40 -23 -44 -21 -145 38 -41 25 -95 56 -120 70
-87 48 -305 175 -314 183 -4 4 9 17 30 28 22 12 46 26 54 31 15 10 155 91 220
127 19 11 82 47 140 81 l104 60 46 -26 c25 -15 148 -85 272 -157z m1255 117
c65 -38 183 -106 263 -152 80 -46 151 -88 158 -95 11 -9 -19 -30 -145 -103
-87 -49 -209 -120 -272 -156 -63 -37 -120 -65 -127 -64 -7 2 -134 73 -283 158
-169 97 -266 159 -260 165 10 10 530 313 541 314 3 1 59 -30 125 -67z m-598
-497 c138 -80 262 -151 276 -157 14 -6 25 -15 25 -19 0 -5 -33 -27 -72 -49
-40 -23 -80 -45 -88 -50 -8 -6 -97 -57 -198 -115 -175 -100 -214 -117 -227
-96 -3 5 -29 23 -58 39 -77 42 -143 80 -225 129 -41 24 -75 43 -76 43 -2 0
-40 22 -85 49 l-82 48 27 18 c14 9 51 31 83 47 31 17 80 46 109 65 29 18 54
33 57 33 2 0 28 14 57 32 51 30 221 127 225 128 0 0 114 -65 252 -145z m1117
-442 c-2 -3 -75 37 -163 87 -207 120 -243 141 -271 156 -13 6 -23 15 -23 19 0
6 239 148 391 233 25 13 50 29 55 34 10 9 21 -520 11 -529z m-2013 118 c211
-125 450 -261 458 -261 5 0 9 -3 9 -7 0 -5 18 -17 41 -27 22 -11 44 -27 47
-35 4 -9 7 -153 6 -321 -1 -255 -3 -304 -15 -302 -8 2 -99 53 -204 114 -104
61 -203 118 -220 128 -78 44 -713 414 -734 427 -23 15 -23 16 66 68 49 29 109
64 134 77 24 14 100 58 167 97 68 39 128 71 133 71 5 0 9 5 9 10 0 18 18 11
103 -39z m1547 -53 c52 -30 115 -66 140 -80 107 -60 226 -130 232 -136 4 -4
-84 -60 -195 -124 -286 -165 -509 -294 -549 -318 -18 -11 -40 -23 -48 -27 -8
-4 -49 -27 -90 -52 -41 -24 -91 -53 -110 -63 -19 -10 -42 -23 -50 -28 -26 -17
-138 -80 -142 -80 -2 0 -4 143 -4 318 l1 319 105 60 c58 34 177 103 265 153
88 51 180 104 205 118 25 13 49 28 54 33 10 9 19 4 186 -93z"/>
</g>
</svg>
